G04 Layer_Color=16711935*
%FSLAX25Y25*%
%MOIN*%
G70*
G01*
G75*
%ADD26C,0.05800*%
%ADD27C,0.02800*%
%ADD28R,0.05800X0.07100*%
%ADD29O,0.03162X0.09461*%
G04:AMPARAMS|DCode=30|XSize=31.62mil|YSize=47.37mil|CornerRadius=9.91mil|HoleSize=0mil|Usage=FLASHONLY|Rotation=90.000|XOffset=0mil|YOffset=0mil|HoleType=Round|Shape=RoundedRectangle|*
%AMROUNDEDRECTD30*
21,1,0.03162,0.02756,0,0,90.0*
21,1,0.01181,0.04737,0,0,90.0*
1,1,0.01981,0.01378,0.00591*
1,1,0.01981,0.01378,-0.00591*
1,1,0.01981,-0.01378,-0.00591*
1,1,0.01981,-0.01378,0.00591*
%
%ADD30ROUNDEDRECTD30*%
G04:AMPARAMS|DCode=31|XSize=31.62mil|YSize=47.37mil|CornerRadius=9.91mil|HoleSize=0mil|Usage=FLASHONLY|Rotation=180.000|XOffset=0mil|YOffset=0mil|HoleType=Round|Shape=RoundedRectangle|*
%AMROUNDEDRECTD31*
21,1,0.03162,0.02756,0,0,180.0*
21,1,0.01181,0.04737,0,0,180.0*
1,1,0.01981,-0.00591,0.01378*
1,1,0.01981,0.00591,0.01378*
1,1,0.01981,0.00591,-0.01378*
1,1,0.01981,-0.00591,-0.01378*
%
%ADD31ROUNDEDRECTD31*%
%ADD32R,0.03800X0.03800*%
%ADD33R,0.03800X0.03800*%
%ADD34R,0.07887X0.08674*%
%ADD35R,0.02769X0.05721*%
D26*
X3687000Y2992500D02*
D03*
Y3005000D02*
D03*
Y3017500D02*
D03*
X3852500Y2992500D02*
D03*
Y3005000D02*
D03*
Y3017500D02*
D03*
D27*
X3791500Y2967000D02*
D03*
D28*
X3830000Y3017800D02*
D03*
X3822000D02*
D03*
X3855000Y3027800D02*
D03*
X3847000D02*
D03*
D29*
X3751000Y3050949D02*
D03*
X3756000D02*
D03*
X3761000D02*
D03*
X3766000D02*
D03*
X3771000D02*
D03*
X3776000D02*
D03*
X3781000D02*
D03*
X3786000D02*
D03*
X3751000Y3032051D02*
D03*
X3756000D02*
D03*
X3761000D02*
D03*
X3766000D02*
D03*
X3771000D02*
D03*
X3776000D02*
D03*
X3781000D02*
D03*
X3786000D02*
D03*
D30*
X3804276Y3025500D02*
D03*
X3813725Y3021760D02*
D03*
Y3029240D02*
D03*
D31*
X3841500Y3009776D02*
D03*
X3845240Y3019224D02*
D03*
X3837760D02*
D03*
D32*
X3820275Y3029000D02*
D03*
X3825725D02*
D03*
X3833275D02*
D03*
X3838725D02*
D03*
X3711725Y3034000D02*
D03*
X3706275D02*
D03*
X3805775Y3015500D02*
D03*
X3811225D02*
D03*
X3805775Y3035500D02*
D03*
X3811225D02*
D03*
D33*
X3728500Y3034450D02*
D03*
Y3029000D02*
D03*
X3712000Y3021225D02*
D03*
Y3015775D02*
D03*
X3771000Y3023725D02*
D03*
Y3018275D02*
D03*
X3798000Y2978725D02*
D03*
Y2973275D02*
D03*
X3736000Y3034750D02*
D03*
Y3029250D02*
D03*
X3743000D02*
D03*
Y3034750D02*
D03*
D34*
X3787717Y3069000D02*
D03*
X3750315D02*
D03*
D35*
X3779842Y3064571D02*
D03*
X3775906D02*
D03*
X3771968D02*
D03*
X3768031D02*
D03*
X3764095D02*
D03*
X3760157D02*
D03*
X3777874Y3073429D02*
D03*
X3773937D02*
D03*
X3770000D02*
D03*
X3766063D02*
D03*
X3762126D02*
D03*
X3758189D02*
D03*
M02*
