G04 Layer_Color=128*
%FSLAX25Y25*%
%MOIN*%
G70*
G01*
G75*
%ADD10C,0.00200*%
D10*
X3685622Y2992500D02*
X3688378D01*
X3687000Y2991122D02*
Y2993878D01*
X3685622Y3005000D02*
X3688378D01*
X3687000Y3003622D02*
Y3006378D01*
X3685622Y3017500D02*
X3688378D01*
X3687000Y3016122D02*
Y3018878D01*
X3851122Y2992500D02*
X3853878D01*
X3852500Y2991122D02*
Y2993878D01*
X3851122Y3005000D02*
X3853878D01*
X3852500Y3003622D02*
Y3006378D01*
X3851122Y3017500D02*
X3853878D01*
X3852500Y3016122D02*
Y3018878D01*
X3790900Y2967000D02*
X3792100D01*
X3791500Y2966400D02*
Y2967600D01*
X3785250Y3035500D02*
X3786750D01*
X3786000Y3034750D02*
Y3036250D01*
X3799250Y3035500D02*
X3800750D01*
X3800000Y3034750D02*
Y3036250D01*
X3731250Y3037500D02*
X3732750D01*
X3732000Y3036750D02*
Y3038250D01*
X3763250Y3044000D02*
X3764750D01*
X3764000Y3043250D02*
Y3044750D01*
X3703250Y3038500D02*
X3704750D01*
X3704000Y3037750D02*
Y3039250D01*
X3713750Y3025500D02*
X3715250D01*
X3714500Y3024750D02*
Y3026250D01*
X3711250Y3011500D02*
X3712750D01*
X3712000Y3010750D02*
Y3012250D01*
X3797250Y2986500D02*
X3798750D01*
X3798000Y2985750D02*
Y2987250D01*
X3798250Y3026000D02*
X3799750D01*
X3799000Y3025250D02*
Y3026750D01*
X3765250Y3034000D02*
X3766750D01*
X3766000Y3033250D02*
Y3034750D01*
X3770250Y3015000D02*
X3771750D01*
X3771000Y3014250D02*
Y3015750D01*
X3814750Y3038000D02*
X3816250D01*
X3815500Y3037250D02*
Y3038750D01*
X3810250Y3011500D02*
X3811750D01*
X3811000Y3010750D02*
Y3012250D01*
X3766250Y3041000D02*
X3767750D01*
X3767000Y3040250D02*
Y3041750D01*
X3814640Y3021760D02*
X3815840D01*
X3815240Y3021160D02*
Y3022360D01*
X3844900Y3020000D02*
X3846100D01*
X3845500Y3019400D02*
Y3020600D01*
X3761526Y3069626D02*
X3762726D01*
X3762126Y3069026D02*
Y3070226D01*
X3763400Y3058000D02*
X3764600D01*
X3764000Y3057400D02*
Y3058600D01*
X3765400Y3069500D02*
X3766600D01*
X3766000Y3068900D02*
Y3070100D01*
X3783400Y3059000D02*
X3784600D01*
X3784000Y3058400D02*
Y3059600D01*
X3769400Y3069500D02*
X3770600D01*
X3770000Y3068900D02*
Y3070100D01*
X3779400Y3067000D02*
X3780600D01*
X3780000Y3066400D02*
Y3067600D01*
X3771900Y3057500D02*
X3773100D01*
X3772500Y3056900D02*
Y3058100D01*
X3771400Y3064500D02*
X3772600D01*
X3772000Y3063900D02*
Y3065100D01*
X3845900Y3076500D02*
X3847100D01*
X3846500Y3075900D02*
Y3077100D01*
X3773400Y3079000D02*
X3774600D01*
X3774000Y3078400D02*
Y3079600D01*
X3697900Y3012500D02*
X3699100D01*
X3698500Y3011900D02*
Y3013100D01*
M02*
