M48
;Layer_Color=9474304
;FILE_FORMAT=2:5
INCH,LZ
;TYPE=PLATED
T1F00S00C0.01200
T2F00S00C0.01500
T3F00S00C0.02756
%
T01
X37915Y2967
X381524Y302176
X38455Y302
X38465Y30765
X3774Y3079
X377Y30695
X3766
X3762126Y3069626
X3764Y3058
X37725Y30575
X3772Y30645
X378Y3067
X3784Y3059
X36985Y30125
T02
X38155Y3038
X38Y30355
X3799Y3026
X3786Y30355
X3766Y3034
X3767Y3041
X3764Y3044
X3771Y3015
X3811Y30115
X3798Y29865
X3712Y30115
X37145Y30255
X3704Y30385
X3732Y30375
T03
X38525Y30175
Y3005
Y29925
X3687
Y3005
Y30175
M30
