G04 Layer_Color=65535*
%FSLAX25Y25*%
%MOIN*%
G70*
G01*
G75*
%ADD10C,0.00800*%
%ADD25C,0.00500*%
D10*
X3715000Y3075928D02*
X3716285D01*
X3716714Y3076071D01*
X3716857Y3076214D01*
X3716999Y3076500D01*
Y3076928D01*
X3716857Y3077214D01*
X3716714Y3077357D01*
X3716285Y3077499D01*
X3715000D01*
Y3074500D01*
X3719956D02*
X3718813Y3077499D01*
X3717671Y3074500D01*
X3718099Y3075500D02*
X3719527D01*
X3720656Y3077499D02*
Y3074500D01*
Y3077499D02*
X3721656D01*
X3722084Y3077357D01*
X3722370Y3077071D01*
X3722513Y3076785D01*
X3722655Y3076357D01*
Y3075643D01*
X3722513Y3075214D01*
X3722370Y3074928D01*
X3722084Y3074643D01*
X3721656Y3074500D01*
X3720656D01*
X3724184Y3077499D02*
X3723755Y3077357D01*
X3723470Y3076928D01*
X3723327Y3076214D01*
Y3075785D01*
X3723470Y3075071D01*
X3723755Y3074643D01*
X3724184Y3074500D01*
X3724469D01*
X3724898Y3074643D01*
X3725183Y3075071D01*
X3725327Y3075785D01*
Y3076214D01*
X3725183Y3076928D01*
X3724898Y3077357D01*
X3724469Y3077499D01*
X3724184D01*
X3810500Y3075928D02*
X3811786D01*
X3812214Y3076071D01*
X3812357Y3076214D01*
X3812500Y3076500D01*
Y3076928D01*
X3812357Y3077214D01*
X3812214Y3077357D01*
X3811786Y3077499D01*
X3810500D01*
Y3074500D01*
X3815456D02*
X3814314Y3077499D01*
X3813171Y3074500D01*
X3813599Y3075500D02*
X3815028D01*
X3816156Y3077499D02*
Y3074500D01*
Y3077499D02*
X3817156D01*
X3817584Y3077357D01*
X3817870Y3077071D01*
X3818013Y3076785D01*
X3818156Y3076357D01*
Y3075643D01*
X3818013Y3075214D01*
X3817870Y3074928D01*
X3817584Y3074643D01*
X3817156Y3074500D01*
X3816156D01*
X3820541Y3077499D02*
X3819112D01*
X3818970Y3076214D01*
X3819112Y3076357D01*
X3819541Y3076500D01*
X3819970D01*
X3820398Y3076357D01*
X3820684Y3076071D01*
X3820826Y3075643D01*
Y3075357D01*
X3820684Y3074928D01*
X3820398Y3074643D01*
X3819970Y3074500D01*
X3819541D01*
X3819112Y3074643D01*
X3818970Y3074786D01*
X3818827Y3075071D01*
X3714500Y2946428D02*
X3715785D01*
X3716214Y2946571D01*
X3716357Y2946714D01*
X3716500Y2947000D01*
Y2947428D01*
X3716357Y2947714D01*
X3716214Y2947857D01*
X3715785Y2947999D01*
X3714500D01*
Y2945000D01*
X3719456D02*
X3718314Y2947999D01*
X3717171Y2945000D01*
X3717599Y2946000D02*
X3719028D01*
X3720156Y2947999D02*
Y2945000D01*
Y2947999D02*
X3721156D01*
X3721584Y2947857D01*
X3721870Y2947571D01*
X3722013Y2947285D01*
X3722155Y2946857D01*
Y2946143D01*
X3722013Y2945714D01*
X3721870Y2945428D01*
X3721584Y2945143D01*
X3721156Y2945000D01*
X3720156D01*
X3722827Y2947428D02*
X3723112Y2947571D01*
X3723541Y2947999D01*
Y2945000D01*
X3763500Y3033428D02*
X3764785D01*
X3765214Y3033571D01*
X3765357Y3033714D01*
X3765499Y3034000D01*
Y3034428D01*
X3765357Y3034714D01*
X3765214Y3034856D01*
X3764785Y3034999D01*
X3763500D01*
Y3032000D01*
X3768456D02*
X3767313Y3034999D01*
X3766171Y3032000D01*
X3766599Y3033000D02*
X3768027D01*
X3769156Y3034999D02*
Y3032000D01*
Y3034999D02*
X3770156D01*
X3770584Y3034856D01*
X3770870Y3034571D01*
X3771013Y3034285D01*
X3771156Y3033857D01*
Y3033143D01*
X3771013Y3032714D01*
X3770870Y3032429D01*
X3770584Y3032143D01*
X3770156Y3032000D01*
X3769156D01*
X3771970Y3034285D02*
Y3034428D01*
X3772112Y3034714D01*
X3772255Y3034856D01*
X3772541Y3034999D01*
X3773112D01*
X3773398Y3034856D01*
X3773541Y3034714D01*
X3773684Y3034428D01*
Y3034142D01*
X3773541Y3033857D01*
X3773255Y3033428D01*
X3771827Y3032000D01*
X3773826D01*
X3764000Y2931428D02*
X3765285D01*
X3765714Y2931571D01*
X3765857Y2931714D01*
X3766000Y2932000D01*
Y2932428D01*
X3765857Y2932714D01*
X3765714Y2932857D01*
X3765285Y2932999D01*
X3764000D01*
Y2930000D01*
X3768956D02*
X3767813Y2932999D01*
X3766671Y2930000D01*
X3767099Y2931000D02*
X3768528D01*
X3769656Y2932999D02*
Y2930000D01*
Y2932999D02*
X3770656D01*
X3771084Y2932857D01*
X3771370Y2932571D01*
X3771513Y2932285D01*
X3771656Y2931857D01*
Y2931143D01*
X3771513Y2930714D01*
X3771370Y2930429D01*
X3771084Y2930143D01*
X3770656Y2930000D01*
X3769656D01*
X3772612Y2932999D02*
X3774184D01*
X3773326Y2931857D01*
X3773755D01*
X3774041Y2931714D01*
X3774184Y2931571D01*
X3774326Y2931143D01*
Y2930857D01*
X3774184Y2930429D01*
X3773898Y2930143D01*
X3773470Y2930000D01*
X3773041D01*
X3772612Y2930143D01*
X3772470Y2930286D01*
X3772327Y2930571D01*
X3812500Y2947428D02*
X3813786D01*
X3814214Y2947571D01*
X3814357Y2947714D01*
X3814500Y2948000D01*
Y2948428D01*
X3814357Y2948714D01*
X3814214Y2948857D01*
X3813786Y2948999D01*
X3812500D01*
Y2946000D01*
X3817456D02*
X3816314Y2948999D01*
X3815171Y2946000D01*
X3815599Y2947000D02*
X3817028D01*
X3818156Y2948999D02*
Y2946000D01*
Y2948999D02*
X3819156D01*
X3819584Y2948857D01*
X3819870Y2948571D01*
X3820013Y2948285D01*
X3820155Y2947857D01*
Y2947143D01*
X3820013Y2946714D01*
X3819870Y2946428D01*
X3819584Y2946143D01*
X3819156Y2946000D01*
X3818156D01*
X3822255Y2948999D02*
X3820827Y2947000D01*
X3822969D01*
X3822255Y2948999D02*
Y2946000D01*
D25*
X3697935Y3044825D02*
G03*
X3701872Y3040888I3937J0D01*
G01*
Y3072384D02*
G03*
X3697935Y3068447I0J-3937D01*
G01*
X3741242Y3040888D02*
G03*
X3745179Y3044825I0J3937D01*
G01*
Y3068447D02*
G03*
X3741242Y3072384I-3937J0D01*
G01*
X3796360D02*
G03*
X3792423Y3068447I0J-3937D01*
G01*
Y3044825D02*
G03*
X3796360Y3040888I3937J0D01*
G01*
X3835730D02*
G03*
X3839668Y3044825I0J3937D01*
G01*
Y3068447D02*
G03*
X3835730Y3072384I-3937J0D01*
G01*
X3741242Y3067266D02*
G03*
X3740061Y3068447I-1181J0D01*
G01*
Y3044825D02*
G03*
X3741242Y3046006I0J1181D01*
G01*
X3701872D02*
G03*
X3703053Y3044825I1181J0D01*
G01*
Y3068447D02*
G03*
X3701872Y3067266I0J-1181D01*
G01*
X3835730D02*
G03*
X3834549Y3068447I-1181J0D01*
G01*
Y3044825D02*
G03*
X3835730Y3046006I0J1181D01*
G01*
X3796360D02*
G03*
X3797541Y3044825I1181J0D01*
G01*
Y3068447D02*
G03*
X3796360Y3067266I0J-1181D01*
G01*
X3693998Y2966085D02*
Y2997581D01*
Y2966085D02*
X3709746Y2950336D01*
X3697935Y2967715D02*
X3711377Y2954273D01*
X3697935Y3044825D02*
Y3068447D01*
Y2967715D02*
Y2995950D01*
X3701872Y3046006D02*
Y3067266D01*
X3715652Y3056636D02*
X3725495Y3064510D01*
X3720694Y3056636D02*
X3727463Y3062050D01*
X3745179Y2934588D02*
X3792423D01*
X3747148Y2938526D02*
X3790455D01*
X3725495Y3048762D02*
X3727463Y3051221D01*
X3733368Y2950336D02*
X3745179Y2934588D01*
X3737305Y2951649D02*
X3747148Y2938526D01*
X3804234Y2950336D02*
X3827856D01*
X3709746D02*
X3733368D01*
X3711377Y2954273D02*
X3733368D01*
X3804234D02*
X3826226D01*
X3693998Y2997581D02*
X3709746Y3013329D01*
X3697935Y2995950D02*
X3711377Y3009392D01*
X3733368Y2954273D02*
Y3009392D01*
X3761562Y2971990D02*
X3776041D01*
X3737305Y2983801D02*
Y3012016D01*
Y2951649D02*
Y2979864D01*
X3741242Y3046006D02*
Y3067266D01*
X3733368Y3013329D02*
X3745179Y3029077D01*
X3737305Y3012016D02*
X3747148Y3025140D01*
X3778644Y2979864D02*
X3800298D01*
X3737305D02*
X3758959D01*
Y2975460D02*
X3761562Y2971990D01*
X3745179Y3044825D02*
Y3068447D01*
X3737305Y2983801D02*
X3758959D01*
X3778644D02*
X3800298D01*
X3758959D02*
Y2988205D01*
Y2975460D02*
Y2979864D01*
X3809086Y3059658D02*
X3811313Y3061886D01*
X3761562Y2991675D02*
X3776041D01*
X3816045Y3057153D02*
X3823562Y3064669D01*
X3816045Y3052699D02*
X3825789Y3062442D01*
X3776041Y2991675D02*
X3778644Y2988205D01*
X3758959D02*
X3761562Y2991675D01*
X3804234Y3009392D02*
X3826226D01*
X3711377D02*
X3733368D01*
X3709746Y3013329D02*
X3733368D01*
X3804234D02*
X3827856D01*
X3715652Y3056636D02*
X3725495Y3048762D01*
X3720694Y3056636D02*
X3727463Y3051221D01*
X3725495Y3064510D02*
X3727463Y3062050D01*
X3778644Y2975460D02*
Y2979864D01*
Y2983801D02*
Y2988205D01*
X3792423Y3044825D02*
Y3068447D01*
X3747148Y3025140D02*
X3790455D01*
X3745179Y3029077D02*
X3792423D01*
X3796360Y3046006D02*
Y3067266D01*
X3800298Y2951649D02*
Y2979864D01*
Y2983801D02*
Y3012016D01*
X3776041Y2971990D02*
X3778644Y2975460D01*
X3701872Y3040888D02*
X3741242D01*
X3796360D02*
X3835730D01*
X3790455Y3025140D02*
X3800298Y3012016D01*
X3792423Y3029077D02*
X3804234Y3013329D01*
Y2954273D02*
Y3009392D01*
X3797541Y3044825D02*
X3834549D01*
X3703053D02*
X3740061D01*
X3826226Y3009392D02*
X3839668Y2995950D01*
X3827856Y3013329D02*
X3843605Y2997581D01*
X3790455Y2938526D02*
X3800298Y2951649D01*
X3835730Y3046006D02*
Y3067266D01*
X3792423Y2934588D02*
X3804234Y2950336D01*
X3703053Y3068447D02*
X3740061D01*
X3797541D02*
X3834549D01*
X3796360Y3072384D02*
X3835730D01*
X3701872D02*
X3741242D01*
X3809086Y3059658D02*
X3816045Y3052699D01*
X3839668Y2967715D02*
Y2995950D01*
Y3044825D02*
Y3068447D01*
X3843605Y2966085D02*
Y2997581D01*
X3811313Y3061886D02*
X3816045Y3057153D01*
X3826226Y2954273D02*
X3839668Y2967715D01*
X3827856Y2950336D02*
X3843605Y2966085D01*
X3823562Y3064669D02*
X3825789Y3062442D01*
M02*
