G04 Layer_Color=255*
%FSLAX25Y25*%
%MOIN*%
G70*
G01*
G75*
%ADD14C,0.05000*%
%ADD17R,0.05000X0.06300*%
%ADD18O,0.02362X0.08661*%
G04:AMPARAMS|DCode=19|XSize=23.62mil|YSize=39.37mil|CornerRadius=5.91mil|HoleSize=0mil|Usage=FLASHONLY|Rotation=90.000|XOffset=0mil|YOffset=0mil|HoleType=Round|Shape=RoundedRectangle|*
%AMROUNDEDRECTD19*
21,1,0.02362,0.02756,0,0,90.0*
21,1,0.01181,0.03937,0,0,90.0*
1,1,0.01181,0.01378,0.00591*
1,1,0.01181,0.01378,-0.00591*
1,1,0.01181,-0.01378,-0.00591*
1,1,0.01181,-0.01378,0.00591*
%
%ADD19ROUNDEDRECTD19*%
G04:AMPARAMS|DCode=20|XSize=23.62mil|YSize=39.37mil|CornerRadius=5.91mil|HoleSize=0mil|Usage=FLASHONLY|Rotation=180.000|XOffset=0mil|YOffset=0mil|HoleType=Round|Shape=RoundedRectangle|*
%AMROUNDEDRECTD20*
21,1,0.02362,0.02756,0,0,180.0*
21,1,0.01181,0.03937,0,0,180.0*
1,1,0.01181,-0.00591,0.01378*
1,1,0.01181,0.00591,0.01378*
1,1,0.01181,0.00591,-0.01378*
1,1,0.01181,-0.00591,-0.01378*
%
%ADD20ROUNDEDRECTD20*%
%ADD21R,0.03000X0.03000*%
%ADD22R,0.03000X0.03000*%
%ADD23R,0.07087X0.07874*%
%ADD24R,0.01969X0.04921*%
D14*
X3687000Y2992500D02*
D03*
Y3005000D02*
D03*
Y3017500D02*
D03*
X3852500Y2992500D02*
D03*
Y3005000D02*
D03*
Y3017500D02*
D03*
D17*
X3830000Y3017800D02*
D03*
X3822000D02*
D03*
X3855000Y3027800D02*
D03*
X3847000D02*
D03*
D18*
X3751000Y3050949D02*
D03*
X3756000D02*
D03*
X3761000D02*
D03*
X3766000D02*
D03*
X3771000D02*
D03*
X3776000D02*
D03*
X3781000D02*
D03*
X3786000D02*
D03*
X3751000Y3032051D02*
D03*
X3756000D02*
D03*
X3761000D02*
D03*
X3766000D02*
D03*
X3771000D02*
D03*
X3776000D02*
D03*
X3781000D02*
D03*
X3786000D02*
D03*
D19*
X3804276Y3025500D02*
D03*
X3813725Y3021760D02*
D03*
Y3029240D02*
D03*
D20*
X3841500Y3009776D02*
D03*
X3845240Y3019224D02*
D03*
X3837760D02*
D03*
D21*
X3820275Y3029000D02*
D03*
X3825725D02*
D03*
X3833275D02*
D03*
X3838725D02*
D03*
X3711725Y3034000D02*
D03*
X3706275D02*
D03*
X3805775Y3015500D02*
D03*
X3811225D02*
D03*
X3805775Y3035500D02*
D03*
X3811225D02*
D03*
D22*
X3728500Y3034450D02*
D03*
Y3029000D02*
D03*
X3712000Y3021225D02*
D03*
Y3015775D02*
D03*
X3771000Y3023725D02*
D03*
Y3018275D02*
D03*
X3798000Y2978725D02*
D03*
Y2973275D02*
D03*
X3736000Y3034750D02*
D03*
Y3029250D02*
D03*
X3743000D02*
D03*
Y3034750D02*
D03*
D23*
X3787717Y3069000D02*
D03*
X3750315D02*
D03*
D24*
X3779842Y3064571D02*
D03*
X3775906D02*
D03*
X3771968D02*
D03*
X3768031D02*
D03*
X3764095D02*
D03*
X3760157D02*
D03*
X3777874Y3073429D02*
D03*
X3773937D02*
D03*
X3770000D02*
D03*
X3766063D02*
D03*
X3762126D02*
D03*
X3758189D02*
D03*
M02*
